<svg xmlns="http://www.w3.org/2000/svg" width="26" height="26"><path d="M15.203 17.138h-.093c-.718 2.019-2.022 3.028-3.911 3.028-1.417 0-2.56-.529-3.427-1.586-.868-1.057-1.302-2.521-1.302-4.391 0-2.42.601-4.389 1.802-5.906s2.649-2.275 4.343-2.275c1.531 0 2.49.618 2.88 1.855h.062l.153-1.569h3.466c-.462 4.502-.694 7.446-.694 8.83 0 1.48.39 2.219 1.171 2.219.822 0 1.5-.56 2.033-1.68.534-1.12.802-2.584.802-4.391 0-2.473-.766-4.5-2.295-6.08-1.531-1.58-3.666-2.37-6.408-2.37-2.937 0-5.379 1.054-7.324 3.163-1.946 2.108-2.919 4.68-2.919 7.713 0 2.938.86 5.253 2.58 6.944 1.72 1.691 4.094 2.537 7.124 2.537 2.311 0 4.426-.454 6.346-1.363v3.028c-1.756.77-4.015 1.156-6.777 1.156-3.79 0-6.873-1.118-9.25-3.353C1.188 20.412 0 17.408 0 13.634c0-3.847 1.268-7.081 3.805-9.702C6.34 1.311 9.606 0 13.6 0c3.697 0 6.688 1.017 8.973 3.052S26 7.768 26 11.098c0 2.738-.698 4.933-2.095 6.588-1.396 1.654-3.127 2.481-5.19 2.481-1.016 0-1.844-.28-2.48-.84-.638-.561-.982-1.291-1.032-2.189zm-2.049-8.371c-.924 0-1.676.542-2.256 1.625-.581 1.084-.871 2.338-.871 3.765 0 1.015.198 1.805.593 2.371.395.566.905.848 1.532.848.966 0 1.725-.533 2.28-1.601.554-1.067.831-2.494.831-4.28 0-.846-.193-1.512-.578-1.998s-.894-.73-1.531-.73z"/></svg>